<mxfile host="65bd71144e">
    <diagram id="kkXaCJFBjLCsjpn_vyYN" name="Page-1">
        <mxGraphModel dx="894" dy="610" grid="1" gridSize="10" guides="1" tooltips="1" connect="1" arrows="1" fold="1" page="1" pageScale="1" pageWidth="850" pageHeight="1100" math="0" shadow="0">
            <root>
                <mxCell id="0"/>
                <mxCell id="1" parent="0"/>
                <mxCell id="18" value="controller" style="rounded=0;whiteSpace=wrap;html=1;fontSize=13;strokeWidth=1;" vertex="1" parent="1">
                    <mxGeometry x="140" y="170" width="550" height="50" as="geometry"/>
                </mxCell>
                <mxCell id="22" value="" style="edgeStyle=orthogonalEdgeStyle;rounded=0;orthogonalLoop=1;jettySize=auto;html=1;fontSize=13;strokeWidth=1;exitX=0.943;exitY=0.143;exitDx=0;exitDy=0;exitPerimeter=0;" edge="1" parent="1" source="19" target="21">
                    <mxGeometry relative="1" as="geometry">
                        <mxPoint x="210" y="335" as="sourcePoint"/>
                        <Array as="points"/>
                    </mxGeometry>
                </mxCell>
                <mxCell id="19" value="service" style="rounded=0;whiteSpace=wrap;html=1;fontSize=13;strokeWidth=1;" vertex="1" parent="1">
                    <mxGeometry x="140" y="305" width="53" height="210" as="geometry"/>
                </mxCell>
                <mxCell id="71" style="edgeStyle=orthogonalEdgeStyle;rounded=0;orthogonalLoop=1;jettySize=auto;html=1;entryX=0;entryY=0.25;entryDx=0;entryDy=0;fontSize=13;endArrow=classic;endFill=1;strokeWidth=1;" edge="1" parent="1" source="21" target="23">
                    <mxGeometry relative="1" as="geometry"/>
                </mxCell>
                <mxCell id="77" value="create" style="edgeLabel;html=1;align=center;verticalAlign=middle;resizable=0;points=[];fontSize=14;fontStyle=0" vertex="1" connectable="0" parent="71">
                    <mxGeometry x="-0.1584" y="1" relative="1" as="geometry">
                        <mxPoint x="1" y="1" as="offset"/>
                    </mxGeometry>
                </mxCell>
                <mxCell id="21" value="domain&lt;br&gt;factory" style="rounded=0;whiteSpace=wrap;html=1;fontSize=13;strokeWidth=1;fillColor=#fff2cc;strokeColor=#d6b656;" vertex="1" parent="1">
                    <mxGeometry x="250" y="310" width="60" height="50" as="geometry"/>
                </mxCell>
                <mxCell id="31" value="" style="group;strokeWidth=1;dashed=1;dashPattern=1 4;" vertex="1" connectable="0" parent="1">
                    <mxGeometry x="370" y="305" width="320" height="133" as="geometry"/>
                </mxCell>
                <mxCell id="23" value="" style="rounded=0;whiteSpace=wrap;html=1;fontSize=13;strokeWidth=1;" vertex="1" parent="31">
                    <mxGeometry width="303.5897435897436" height="121.43478260869566" as="geometry"/>
                </mxCell>
                <mxCell id="28" value="" style="rounded=0;whiteSpace=wrap;html=1;fontSize=13;strokeWidth=1;" vertex="1" parent="31">
                    <mxGeometry x="8.205128205128204" y="5.782608695652174" width="303.5897435897436" height="121.43478260869566" as="geometry"/>
                </mxCell>
                <mxCell id="29" value="&lt;blockquote style=&quot;margin: 0 0 0 40px ; border: none ; padding: 0px&quot;&gt;&lt;br&gt;&lt;/blockquote&gt;" style="rounded=0;whiteSpace=wrap;html=1;fontSize=13;strokeWidth=1;align=left;" vertex="1" parent="31">
                    <mxGeometry x="16.41025641025641" y="11.565217391304348" width="303.5897435897436" height="121.43478260869566" as="geometry"/>
                </mxCell>
                <mxCell id="52" value="&lt;font style=&quot;font-size: 14px&quot;&gt;&lt;b&gt;domain&lt;/b&gt;&lt;/font&gt;" style="text;html=1;align=center;verticalAlign=middle;resizable=0;points=[];autosize=1;strokeColor=none;fontSize=13;strokeWidth=1;" vertex="1" parent="31">
                    <mxGeometry x="12.307692307692307" y="11.561500000000015" width="70" height="20" as="geometry"/>
                </mxCell>
                <mxCell id="93" style="edgeStyle=orthogonalEdgeStyle;rounded=0;orthogonalLoop=1;jettySize=auto;html=1;entryX=0.5;entryY=1;entryDx=0;entryDy=0;fontSize=13;endArrow=classic;endFill=1;strokeWidth=1;" edge="1" parent="1" source="106" target="74">
                    <mxGeometry relative="1" as="geometry">
                        <mxPoint x="425" y="580" as="sourcePoint"/>
                        <Array as="points">
                            <mxPoint x="472" y="570"/>
                            <mxPoint x="472" y="570"/>
                        </Array>
                    </mxGeometry>
                </mxCell>
                <mxCell id="103" style="edgeStyle=orthogonalEdgeStyle;rounded=0;orthogonalLoop=1;jettySize=auto;html=1;entryX=0.75;entryY=0;entryDx=0;entryDy=0;fontSize=14;endArrow=classic;endFill=1;strokeWidth=1;exitX=0.75;exitY=1;exitDx=0;exitDy=0;" edge="1" parent="1" source="106" target="65">
                    <mxGeometry relative="1" as="geometry">
                        <mxPoint x="570" y="650" as="sourcePoint"/>
                    </mxGeometry>
                </mxCell>
                <mxCell id="105" style="edgeStyle=orthogonalEdgeStyle;rounded=0;orthogonalLoop=1;jettySize=auto;html=1;exitX=0.25;exitY=0;exitDx=0;exitDy=0;entryX=0.25;entryY=1;entryDx=0;entryDy=0;fontSize=14;endArrow=classic;endFill=1;strokeWidth=1;" edge="1" parent="1" source="65" target="106">
                    <mxGeometry relative="1" as="geometry">
                        <mxPoint x="282.5" y="610" as="targetPoint"/>
                    </mxGeometry>
                </mxCell>
                <mxCell id="65" value="mapper" style="rounded=0;whiteSpace=wrap;html=1;fontSize=13;strokeWidth=1;" vertex="1" parent="1">
                    <mxGeometry x="140" y="660" width="570" height="50" as="geometry"/>
                </mxCell>
                <mxCell id="94" style="edgeStyle=orthogonalEdgeStyle;rounded=0;orthogonalLoop=1;jettySize=auto;html=1;entryX=1;entryY=0.75;entryDx=0;entryDy=0;fontSize=13;endArrow=classic;endFill=1;strokeWidth=1;" edge="1" parent="1" source="69" target="19">
                    <mxGeometry relative="1" as="geometry"/>
                </mxCell>
                <mxCell id="69" value="domain&lt;br&gt;convert" style="rounded=0;whiteSpace=wrap;html=1;fontSize=13;strokeWidth=1;fillColor=#d5e8d4;strokeColor=#82b366;" vertex="1" parent="1">
                    <mxGeometry x="250" y="438" width="60" height="50" as="geometry"/>
                </mxCell>
                <mxCell id="83" style="edgeStyle=orthogonalEdgeStyle;rounded=0;orthogonalLoop=1;jettySize=auto;html=1;entryX=0.282;entryY=1.016;entryDx=0;entryDy=0;entryPerimeter=0;fontSize=13;endArrow=classic;endFill=1;strokeWidth=1;" edge="1" parent="1" source="74" target="29">
                    <mxGeometry relative="1" as="geometry"/>
                </mxCell>
                <mxCell id="74" value="domain factory" style="rounded=0;whiteSpace=wrap;html=1;fontSize=13;strokeWidth=1;fillColor=#fff2cc;strokeColor=#d6b656;" vertex="1" parent="1">
                    <mxGeometry x="412" y="480" width="120" height="40" as="geometry"/>
                </mxCell>
                <mxCell id="79" style="edgeStyle=orthogonalEdgeStyle;rounded=0;orthogonalLoop=1;jettySize=auto;html=1;exitX=0.75;exitY=1;exitDx=0;exitDy=0;entryX=0.835;entryY=-0.05;entryDx=0;entryDy=0;entryPerimeter=0;fontSize=13;endArrow=classic;endFill=1;strokeWidth=1;" edge="1" parent="1" source="29" target="106">
                    <mxGeometry relative="1" as="geometry">
                        <mxPoint x="614.81" y="577" as="targetPoint"/>
                    </mxGeometry>
                </mxCell>
                <mxCell id="96" value="&lt;font style=&quot;font-size: 16px&quot;&gt;&lt;span&gt;call&lt;/span&gt;&lt;/font&gt;" style="edgeLabel;html=1;align=center;verticalAlign=middle;resizable=0;points=[];fontSize=13;fontStyle=0" vertex="1" connectable="0" parent="79">
                    <mxGeometry x="-0.2815" y="1" relative="1" as="geometry">
                        <mxPoint y="19" as="offset"/>
                    </mxGeometry>
                </mxCell>
                <mxCell id="91" style="edgeStyle=orthogonalEdgeStyle;rounded=0;orthogonalLoop=1;jettySize=auto;html=1;exitX=0;exitY=0.75;exitDx=0;exitDy=0;entryX=1;entryY=0.5;entryDx=0;entryDy=0;fontSize=13;endArrow=classic;endFill=1;strokeWidth=1;" edge="1" parent="1" source="23" target="69">
                    <mxGeometry relative="1" as="geometry"/>
                </mxCell>
                <mxCell id="98" value="" style="shape=flexArrow;endArrow=classic;startArrow=classic;html=1;fontSize=14;strokeWidth=1;exitX=0.5;exitY=0;exitDx=0;exitDy=0;entryX=0.048;entryY=1;entryDx=0;entryDy=0;entryPerimeter=0;dashed=1;dashPattern=1 2;" edge="1" parent="1" source="19" target="18">
                    <mxGeometry width="100" height="100" relative="1" as="geometry">
                        <mxPoint x="310" y="430" as="sourcePoint"/>
                        <mxPoint x="410" y="330" as="targetPoint"/>
                    </mxGeometry>
                </mxCell>
                <mxCell id="100" value="create" style="edgeLabel;html=1;align=center;verticalAlign=middle;resizable=0;points=[];fontSize=14;fontStyle=0" vertex="1" connectable="0" parent="1">
                    <mxGeometry x="470" y="460" as="geometry"/>
                </mxCell>
                <mxCell id="106" value="IManager" style="swimlane;fontSize=14;strokeWidth=1;glass=0;rounded=0;shadow=0;sketch=0;swimlaneLine=1;" vertex="1" parent="1">
                    <mxGeometry x="140" y="560" width="570" height="50" as="geometry">
                        <mxRectangle x="140" y="590" width="150" height="23" as="alternateBounds"/>
                    </mxGeometry>
                </mxCell>
                <mxCell id="34" value="model抽象类" style="rounded=1;whiteSpace=wrap;html=1;fontSize=13;strokeWidth=1;" vertex="1" parent="1">
                    <mxGeometry x="400" y="345" width="120" height="30" as="geometry"/>
                </mxCell>
                <mxCell id="35" value="model" style="rounded=1;whiteSpace=wrap;html=1;fontSize=13;strokeWidth=1;" vertex="1" parent="1">
                    <mxGeometry x="400" y="375" width="60" height="30" as="geometry"/>
                </mxCell>
                <mxCell id="36" value="model" style="rounded=1;whiteSpace=wrap;html=1;fontSize=13;strokeWidth=1;" vertex="1" parent="1">
                    <mxGeometry x="460" y="375" width="60" height="30" as="geometry"/>
                </mxCell>
                <mxCell id="108" style="edgeStyle=orthogonalEdgeStyle;rounded=0;orthogonalLoop=1;jettySize=auto;html=1;exitX=0.5;exitY=0;exitDx=0;exitDy=0;entryX=0.5;entryY=0;entryDx=0;entryDy=0;fontSize=14;endArrow=classic;endFill=1;strokeWidth=1;strokeColor=#00CC66;dashed=1;" edge="1" parent="1" source="40" target="21">
                    <mxGeometry relative="1" as="geometry">
                        <Array as="points">
                            <mxPoint x="620" y="260"/>
                            <mxPoint x="280" y="260"/>
                        </Array>
                    </mxGeometry>
                </mxCell>
                <mxCell id="109" value="other domain" style="edgeLabel;html=1;align=center;verticalAlign=middle;resizable=0;points=[];fontSize=14;" vertex="1" connectable="0" parent="108">
                    <mxGeometry x="0.1537" relative="1" as="geometry">
                        <mxPoint x="21" as="offset"/>
                    </mxGeometry>
                </mxCell>
                <mxCell id="40" value="IAction" style="rounded=1;whiteSpace=wrap;html=1;fontSize=13;strokeWidth=1;" vertex="1" parent="1">
                    <mxGeometry x="560" y="345" width="120" height="30" as="geometry"/>
                </mxCell>
                <mxCell id="41" value="action" style="rounded=1;whiteSpace=wrap;html=1;fontSize=13;strokeWidth=1;" vertex="1" parent="1">
                    <mxGeometry x="560" y="375" width="60" height="30" as="geometry"/>
                </mxCell>
                <mxCell id="42" value="action" style="rounded=1;whiteSpace=wrap;html=1;fontSize=13;strokeWidth=1;" vertex="1" parent="1">
                    <mxGeometry x="620" y="375" width="60" height="30" as="geometry"/>
                </mxCell>
                <mxCell id="43" value="" style="edgeStyle=orthogonalEdgeStyle;rounded=0;orthogonalLoop=1;jettySize=auto;html=1;fontSize=13;strokeWidth=1;endArrow=diamond;endFill=0;entryX=0;entryY=0.5;entryDx=0;entryDy=0;" edge="1" parent="1" source="34" target="40">
                    <mxGeometry x="412" y="340" as="geometry">
                        <mxPoint x="580" y="360" as="targetPoint"/>
                    </mxGeometry>
                </mxCell>
            </root>
        </mxGraphModel>
    </diagram>
</mxfile>
